<?xml version="1.0" encoding="UTF-8"?><svg id="Layer_1" xmlns="http://www.w3.org/2000/svg" viewBox="0 0 217 34"><defs><style>.cls-1{fill:#fff;}.cls-2{fill:#e95420;}.cls-3{fill:none;}</style></defs><g><path class="cls-1" d="M32.53,29.47c-1.24,0-2.36-.29-3.35-.88-1-.58-1.79-1.44-2.37-2.56-.58-1.12-.88-2.5-.88-4.12,0-1.21,.18-2.29,.54-3.23,.36-.94,.86-1.73,1.48-2.37s1.34-1.12,2.14-1.45,1.64-.49,2.52-.49c.72,0,1.36,.06,1.9,.18,.54,.12,1,.25,1.36,.4,.36,.15,.63,.28,.79,.39l-.46,1.23c-.35-.21-.79-.41-1.34-.62s-1.2-.3-1.98-.3c-1.2,0-2.2,.26-3.01,.79-.81,.53-1.42,1.27-1.83,2.21s-.62,2.04-.62,3.28,.2,2.37,.61,3.31c.4,.94,1,1.67,1.78,2.18,.78,.51,1.73,.77,2.84,.77,.92,0,1.69-.09,2.31-.26,.62-.17,1.09-.35,1.41-.53l.4,1.21c-.2,.12-.66,.3-1.4,.52s-1.68,.33-2.84,.33Z"/><path class="cls-1" d="M42.46,29.39c-.75,0-1.43-.11-2.03-.33s-1.07-.58-1.42-1.09c-.35-.5-.52-1.16-.52-1.96s.19-1.41,.58-1.9c.39-.49,.93-.85,1.61-1.08,.68-.23,1.46-.34,2.34-.34,.26,0,.54,.02,.84,.05,.29,.03,.55,.08,.78,.12s.38,.09,.45,.14v-.67c0-.5-.06-.98-.18-1.44-.12-.46-.36-.84-.73-1.13-.37-.29-.93-.44-1.68-.44-.79,0-1.39,.06-1.78,.17-.39,.11-.67,.2-.86,.27l-.19-1.19c.24-.11,.61-.22,1.11-.31,.5-.1,1.09-.15,1.78-.15,.96,0,1.72,.17,2.29,.52,.56,.35,.97,.82,1.22,1.42,.25,.6,.38,1.28,.38,2.05v6.81c-.26,.07-.77,.17-1.51,.29-.75,.12-1.57,.19-2.48,.19Zm.23-1.21c.53,0,.99-.02,1.39-.05,.4-.03,.73-.08,1.01-.14v-3.8c-.14-.07-.38-.14-.73-.22-.35-.08-.81-.12-1.38-.12-.45,0-.91,.05-1.39,.16s-.88,.31-1.21,.62c-.33,.31-.49,.77-.49,1.38,0,.81,.25,1.37,.76,1.69,.51,.32,1.19,.48,2.04,.48Z"/><path class="cls-1" d="M49.76,29.16v-10.42c.4-.11,.95-.24,1.64-.38,.69-.14,1.52-.21,2.5-.21,1.1,0,1.96,.21,2.58,.63,.62,.42,1.06,1,1.32,1.74,.26,.75,.39,1.61,.39,2.6v6.04h-1.36v-5.6c0-1.02-.09-1.83-.28-2.44-.19-.61-.51-1.05-.97-1.33-.46-.27-1.09-.41-1.88-.41-.64,0-1.19,.04-1.66,.1-.47,.07-.77,.13-.91,.19v9.48h-1.36Z"/><path class="cls-1" d="M65.81,29.41c-.96,0-1.81-.23-2.55-.7-.74-.47-1.32-1.12-1.74-1.97s-.64-1.84-.64-2.97,.21-2.13,.64-2.98c.42-.84,1.01-1.5,1.74-1.97s1.59-.71,2.55-.71,1.81,.24,2.56,.71c.74,.47,1.33,1.13,1.74,1.97,.42,.84,.63,1.83,.63,2.98s-.21,2.12-.63,2.97-1,1.51-1.74,1.97c-.75,.47-1.6,.7-2.56,.7Zm0-1.23c.71,0,1.33-.18,1.85-.54,.52-.36,.93-.87,1.21-1.54,.29-.66,.43-1.44,.43-2.33s-.14-1.69-.43-2.35-.69-1.17-1.21-1.54c-.52-.36-1.14-.54-1.85-.54s-1.33,.18-1.85,.54c-.52,.36-.93,.87-1.21,1.54-.29,.66-.43,1.45-.43,2.35s.14,1.67,.43,2.33c.29,.66,.69,1.17,1.21,1.54,.52,.36,1.14,.54,1.85,.54Z"/><path class="cls-1" d="M73.56,29.16v-10.42c.4-.11,.95-.24,1.64-.38,.69-.14,1.52-.21,2.5-.21,1.1,0,1.96,.21,2.58,.63,.62,.42,1.06,1,1.32,1.74,.26,.75,.39,1.61,.39,2.6v6.04h-1.36v-5.6c0-1.02-.09-1.83-.28-2.44-.19-.61-.51-1.05-.97-1.33-.46-.27-1.09-.41-1.88-.41-.64,0-1.19,.04-1.66,.1-.47,.07-.77,.13-.91,.19v9.48h-1.36Z"/><path class="cls-1" d="M85.91,16.15c-.28,0-.52-.1-.71-.29s-.29-.45-.29-.75,.1-.58,.29-.76c.19-.19,.43-.28,.71-.28s.51,.09,.71,.28c.2,.19,.29,.44,.29,.76s-.1,.56-.29,.75c-.2,.19-.43,.29-.71,.29Zm-.67,13.01v-10.8h1.36v10.8h-1.36Z"/><path class="cls-1" d="M94.48,29.39c-1.11,0-2.05-.23-2.81-.7s-1.33-1.12-1.72-1.96-.58-1.82-.58-2.93,.2-2.12,.61-2.98c.4-.86,.98-1.52,1.72-2s1.63-.71,2.64-.71c.57,0,1.12,.05,1.64,.15,.52,.1,.92,.22,1.18,.38l-.36,1.17c-.28-.14-.59-.25-.95-.33s-.82-.12-1.39-.12c-1.18,0-2.09,.39-2.72,1.17-.63,.78-.94,1.87-.94,3.28,0,.85,.13,1.6,.39,2.27,.26,.66,.67,1.18,1.24,1.54,.57,.37,1.33,.55,2.28,.55,.57,0,1.06-.07,1.46-.2,.4-.13,.7-.25,.88-.34l.29,1.17c-.25,.14-.65,.28-1.19,.41s-1.1,.2-1.67,.2Z"/><path class="cls-1" d="M102.91,29.39c-.75,0-1.43-.11-2.03-.33s-1.07-.58-1.42-1.09c-.35-.5-.52-1.16-.52-1.96s.19-1.41,.58-1.9c.39-.49,.93-.85,1.61-1.08,.68-.23,1.46-.34,2.34-.34,.26,0,.54,.02,.84,.05,.29,.03,.55,.08,.78,.12s.38,.09,.45,.14v-.67c0-.5-.06-.98-.18-1.44-.12-.46-.36-.84-.73-1.13-.37-.29-.93-.44-1.68-.44-.79,0-1.39,.06-1.78,.17-.39,.11-.67,.2-.86,.27l-.19-1.19c.24-.11,.61-.22,1.11-.31,.5-.1,1.09-.15,1.78-.15,.96,0,1.72,.17,2.29,.52,.56,.35,.97,.82,1.22,1.42,.25,.6,.38,1.28,.38,2.05v6.81c-.26,.07-.77,.17-1.51,.29-.75,.12-1.57,.19-2.48,.19Zm.23-1.21c.53,0,.99-.02,1.39-.05,.4-.03,.73-.08,1.01-.14v-3.8c-.14-.07-.38-.14-.73-.22-.35-.08-.81-.12-1.38-.12-.45,0-.91,.05-1.39,.16s-.88,.31-1.21,.62c-.33,.31-.49,.77-.49,1.38,0,.81,.25,1.37,.76,1.69,.51,.32,1.19,.48,2.04,.48Z"/><path class="cls-1" d="M112.93,29.35c-.6-.03-1.1-.13-1.51-.3-.41-.17-.72-.46-.93-.86-.21-.4-.31-.94-.31-1.62V13.2l1.36-.25v13.58c0,.45,.05,.78,.17,1,.11,.22,.29,.38,.52,.46,.24,.08,.54,.16,.9,.23l-.19,1.13Z"/><path class="cls-1" d="M119.78,29.16V14.68h1.42v13.24h6.81v1.23h-8.23Z"/><path class="cls-1" d="M133.66,29.39c-.75,0-1.43-.11-2.03-.33s-1.07-.58-1.42-1.09c-.35-.5-.52-1.16-.52-1.96s.19-1.41,.58-1.9c.39-.49,.93-.85,1.61-1.08,.68-.23,1.46-.34,2.34-.34,.26,0,.54,.02,.84,.05,.29,.03,.55,.08,.78,.12s.38,.09,.45,.14v-.67c0-.5-.06-.98-.18-1.44-.12-.46-.36-.84-.73-1.13-.37-.29-.93-.44-1.68-.44-.79,0-1.39,.06-1.78,.17-.39,.11-.67,.2-.86,.27l-.19-1.19c.24-.11,.61-.22,1.11-.31,.5-.1,1.09-.15,1.78-.15,.96,0,1.72,.17,2.29,.52,.56,.35,.97,.82,1.22,1.42,.25,.6,.38,1.28,.38,2.05v6.81c-.26,.07-.77,.17-1.51,.29-.75,.12-1.57,.19-2.48,.19Zm.23-1.21c.53,0,.99-.02,1.39-.05,.4-.03,.73-.08,1.01-.14v-3.8c-.14-.07-.38-.14-.73-.22-.35-.08-.81-.12-1.38-.12-.45,0-.91,.05-1.39,.16s-.88,.31-1.21,.62c-.33,.31-.49,.77-.49,1.38,0,.81,.25,1.37,.76,1.69,.51,.32,1.19,.48,2.04,.48Z"/><path class="cls-1" d="M140.96,29.16v-10.42c.4-.11,.95-.24,1.64-.38,.69-.14,1.52-.21,2.5-.21,1.1,0,1.96,.21,2.58,.63,.62,.42,1.06,1,1.32,1.74,.26,.75,.39,1.61,.39,2.6v6.04h-1.36v-5.6c0-1.02-.09-1.83-.28-2.44-.19-.61-.51-1.05-.97-1.33-.46-.27-1.09-.41-1.88-.41-.64,0-1.19,.04-1.66,.1-.47,.07-.77,.13-.91,.19v9.48h-1.36Z"/><path class="cls-1" d="M157.39,29.41c-1.04,0-1.97-.23-2.77-.68-.8-.45-1.42-1.1-1.87-1.94-.45-.84-.67-1.85-.67-3.02,0-1.1,.19-2.07,.58-2.92,.38-.85,.94-1.51,1.67-2s1.61-.72,2.64-.72c.7,0,1.31,.1,1.84,.3,.53,.2,.91,.39,1.15,.57v-5.81l1.36-.25v15.88c-.26,.08-.58,.17-.95,.26-.37,.09-.8,.17-1.29,.23-.49,.06-1.05,.09-1.69,.09Zm.02-1.23c.65,0,1.19-.04,1.61-.1s.73-.13,.94-.19v-7.56c-.24-.2-.61-.4-1.12-.63-.51-.22-1.09-.33-1.74-.33s-1.23,.12-1.68,.34-.82,.55-1.1,.96c-.28,.41-.48,.88-.61,1.41s-.19,1.09-.19,1.69c0,.93,.16,1.73,.49,2.39,.33,.66,.78,1.16,1.37,1.5,.58,.34,1.26,.51,2.03,.51Z"/><path class="cls-1" d="M166.93,29.41c-.93,0-1.65-.08-2.16-.24-.51-.16-.85-.28-1.01-.37l.35-1.23c.1,.04,.38,.16,.85,.34,.47,.19,1.12,.28,1.97,.28,.78,0,1.42-.13,1.93-.39,.51-.26,.76-.69,.76-1.31,0-.4-.08-.73-.25-.97-.17-.24-.45-.47-.84-.67-.39-.2-.92-.43-1.59-.7-.53-.22-1.02-.46-1.48-.7-.46-.24-.83-.56-1.12-.94s-.43-.87-.43-1.47,.15-1.1,.45-1.55c.3-.45,.73-.79,1.28-1.03,.56-.24,1.22-.37,1.98-.37s1.35,.06,1.84,.19c.49,.13,.82,.24,1,.33l-.31,1.21c-.17-.08-.45-.19-.85-.33s-.98-.21-1.74-.21c-.6,0-1.13,.13-1.59,.39-.46,.26-.69,.67-.69,1.24,0,.39,.1,.71,.29,.96,.19,.25,.48,.47,.86,.65,.38,.18,.84,.38,1.38,.61,.56,.22,1.08,.46,1.56,.7,.48,.24,.87,.57,1.18,.97,.31,.4,.46,.95,.46,1.63,0,.64-.17,1.18-.5,1.63s-.8,.78-1.41,1c-.61,.22-1.33,.33-2.18,.33Z"/><path class="cls-1" d="M178.12,29.39c-1.11,0-2.05-.23-2.81-.7s-1.33-1.12-1.72-1.96-.58-1.82-.58-2.93,.2-2.12,.61-2.98c.4-.86,.98-1.52,1.72-2s1.63-.71,2.64-.71c.57,0,1.12,.05,1.64,.15,.52,.1,.92,.22,1.18,.38l-.36,1.17c-.28-.14-.59-.25-.95-.33s-.82-.12-1.39-.12c-1.18,0-2.09,.39-2.72,1.17-.63,.78-.94,1.87-.94,3.28,0,.85,.13,1.6,.39,2.27,.26,.66,.67,1.18,1.24,1.54,.57,.37,1.33,.55,2.28,.55,.57,0,1.06-.07,1.46-.2,.4-.13,.7-.25,.88-.34l.29,1.17c-.25,.14-.65,.28-1.19,.41s-1.1,.2-1.67,.2Z"/><path class="cls-1" d="M186.56,29.39c-.75,0-1.43-.11-2.03-.33s-1.07-.58-1.42-1.09c-.35-.5-.52-1.16-.52-1.96s.19-1.41,.58-1.9c.39-.49,.93-.85,1.61-1.08,.68-.23,1.46-.34,2.34-.34,.26,0,.54,.02,.84,.05,.29,.03,.55,.08,.78,.12s.38,.09,.45,.14v-.67c0-.5-.06-.98-.18-1.44-.12-.46-.36-.84-.73-1.13-.37-.29-.93-.44-1.68-.44-.79,0-1.39,.06-1.78,.17-.39,.11-.67,.2-.86,.27l-.19-1.19c.24-.11,.61-.22,1.11-.31,.5-.1,1.09-.15,1.78-.15,.96,0,1.72,.17,2.29,.52,.56,.35,.97,.82,1.22,1.42,.25,.6,.38,1.28,.38,2.05v6.81c-.26,.07-.77,.17-1.51,.29-.75,.12-1.57,.19-2.48,.19Zm.23-1.21c.53,0,.99-.02,1.39-.05,.4-.03,.73-.08,1.01-.14v-3.8c-.14-.07-.38-.14-.73-.22-.35-.08-.81-.12-1.38-.12-.45,0-.91,.05-1.39,.16s-.88,.31-1.21,.62c-.33,.31-.49,.77-.49,1.38,0,.81,.25,1.37,.76,1.69,.51,.32,1.19,.48,2.04,.48Z"/><path class="cls-1" d="M193.86,33.02v-14.29c.26-.1,.58-.19,.95-.27,.37-.08,.8-.16,1.29-.22s1.05-.09,1.68-.09c1.06,0,1.98,.23,2.78,.68,.79,.45,1.41,1.1,1.86,1.94,.45,.84,.67,1.85,.67,3.02,0,1.1-.19,2.07-.57,2.91-.38,.84-.94,1.5-1.66,1.98-.72,.48-1.61,.72-2.65,.72-.7,0-1.31-.1-1.84-.3-.53-.2-.91-.39-1.15-.58v4.49h-1.36Zm4.22-4.85c.67,0,1.23-.12,1.68-.34,.45-.23,.82-.55,1.1-.95,.28-.4,.48-.87,.61-1.4,.12-.53,.19-1.09,.19-1.69,0-.95-.16-1.75-.49-2.4s-.78-1.15-1.36-1.49c-.58-.34-1.26-.51-2.04-.51-.65,0-1.19,.03-1.61,.09-.42,.06-.73,.13-.94,.2v7.54c.24,.2,.61,.4,1.13,.63,.51,.22,1.09,.33,1.73,.33Z"/><path class="cls-1" d="M210.63,29.39c-1.25,0-2.27-.24-3.05-.73-.78-.49-1.35-1.16-1.71-2.01-.36-.85-.54-1.82-.54-2.9,0-1.27,.23-2.32,.68-3.14,.45-.83,1.04-1.45,1.76-1.87,.72-.42,1.48-.63,2.28-.63,.89,0,1.66,.19,2.31,.57s1.15,.96,1.5,1.74c.36,.78,.53,1.77,.53,2.97,0,.1,0,.21-.01,.32s-.02,.23-.03,.32h-7.58c.04,1.31,.37,2.32,.99,3.04,.62,.72,1.59,1.08,2.91,1.08,.74,0,1.33-.07,1.77-.21,.44-.14,.75-.26,.93-.35l.25,1.17c-.18,.1-.54,.23-1.09,.39-.54,.16-1.18,.24-1.9,.24Zm-3.82-6.5h6.18c-.01-.75-.14-1.39-.38-1.92-.24-.53-.57-.94-.99-1.22-.43-.29-.94-.43-1.56-.43s-1.2,.17-1.67,.5c-.47,.33-.85,.77-1.12,1.32s-.43,1.13-.47,1.75Z"/></g><rect class="cls-2" x="0" width="21" height="32"/><rect class="cls-3" x="2.5" y="14" width="16" height="16"/><path class="cls-1" d="M15.89,25.59h-6.31s-.04,0-.05,.02c-.01,.01-.02,.03-.02,.05v1.03s.04,.07,.08,.07h5.09v1.06h-6.21V14.9s-.03-.07-.07-.07h-3.31s-.07,.03-.07,.07v14.02s.03,.07,.07,.07h1.07s.04,0,.05-.02,.02-.03,.02-.05V15.94s1.08-.01,1.08-.01l-.04,12.92s0,.04,.02,.05c.01,.01,.03,.02,.05,.02H15.89s.07-.03,.07-.07v-3.19s-.03-.07-.07-.07Z"/></svg>