<?xml version="1.0" encoding="UTF-8"?><svg id="Layer_1" xmlns="http://www.w3.org/2000/svg" viewBox="0 0 217 34"><defs><style>.cls-1{fill:none;}.cls-2{fill:#e95420;}.cls-3{fill:#fff;}</style></defs><g><path d="M32.53,29.47c-.93,0-1.8-.17-2.6-.5-.8-.33-1.5-.82-2.09-1.46s-1.06-1.43-1.4-2.37c-.34-.94-.51-2.02-.51-3.23s.18-2.29,.55-3.23c.37-.94,.86-1.73,1.47-2.37,.61-.64,1.32-1.12,2.13-1.45s1.65-.49,2.53-.49c.54,0,1.04,.04,1.48,.1,.45,.07,.83,.16,1.17,.26,.33,.1,.62,.21,.86,.31,.24,.1,.42,.2,.54,.28l-.46,1.23c-.35-.21-.79-.41-1.33-.62s-1.2-.3-2-.3c-.91,0-1.7,.15-2.37,.46-.68,.31-1.24,.74-1.7,1.29-.46,.56-.8,1.22-1.03,1.98-.23,.77-.34,1.62-.34,2.55s.12,1.83,.34,2.6c.23,.77,.57,1.43,1.01,1.97,.45,.54,.99,.96,1.64,1.25,.65,.29,1.39,.44,2.22,.44,.92,0,1.69-.09,2.31-.26,.62-.17,1.09-.35,1.41-.53l.4,1.21c-.1,.07-.26,.15-.5,.24-.24,.09-.54,.18-.9,.28-.36,.1-.78,.18-1.25,.24-.47,.06-1,.09-1.59,.09Z"/><path d="M42.56,18.11c.71,0,1.31,.1,1.81,.3s.89,.48,1.2,.83c.31,.36,.53,.78,.67,1.26,.14,.49,.21,1.02,.21,1.59v6.81c-.14,.04-.34,.09-.61,.14-.26,.05-.57,.1-.92,.16-.35,.06-.73,.1-1.16,.14-.42,.03-.86,.05-1.31,.05-.57,0-1.1-.06-1.58-.19-.48-.13-.9-.32-1.25-.6-.35-.27-.63-.62-.83-1.04-.2-.42-.3-.94-.3-1.56s.11-1.09,.33-1.5,.54-.76,.94-1.03c.4-.27,.88-.47,1.44-.59,.56-.13,1.16-.19,1.82-.19,.2,0,.4,.01,.62,.03,.22,.02,.42,.05,.63,.08,.2,.03,.38,.07,.52,.1,.15,.03,.25,.07,.3,.09v-.67c0-.38-.03-.74-.08-1.1-.06-.35-.18-.67-.37-.96-.19-.29-.45-.52-.79-.69-.34-.17-.79-.26-1.35-.26-.79,0-1.39,.06-1.78,.17-.39,.11-.67,.2-.86,.27l-.19-1.19c.24-.11,.6-.22,1.1-.31,.49-.1,1.09-.15,1.79-.15Zm.12,10.07c.53,0,.99-.02,1.39-.05,.4-.03,.73-.08,1.01-.14v-3.8c-.15-.07-.4-.14-.73-.22-.33-.08-.79-.12-1.38-.12-.33,0-.68,.02-1.04,.07s-.7,.15-1,.31c-.31,.16-.56,.38-.75,.66-.2,.28-.29,.65-.29,1.11,0,.4,.07,.75,.2,1.02,.13,.28,.32,.5,.56,.67,.24,.17,.54,.29,.88,.37,.34,.08,.73,.12,1.16,.12Z"/><path d="M49.76,18.74c.4-.11,.95-.24,1.63-.38,.68-.14,1.52-.21,2.51-.21,.82,0,1.51,.12,2.06,.36,.55,.24,.99,.57,1.32,1.01,.33,.44,.56,.96,.7,1.58,.14,.61,.21,1.29,.21,2.03v6.04h-1.36v-5.6c0-.77-.05-1.41-.16-1.94s-.28-.96-.52-1.29c-.24-.33-.56-.57-.96-.72-.4-.15-.89-.22-1.49-.22-.64,0-1.19,.04-1.66,.1-.47,.07-.77,.13-.91,.19v9.48h-1.36v-10.42Z"/><path d="M70.74,23.77c0,.85-.12,1.62-.37,2.32-.24,.7-.58,1.29-1.02,1.78s-.96,.87-1.56,1.14c-.6,.27-1.26,.41-1.98,.41s-1.39-.14-1.99-.41-1.12-.65-1.56-1.14-.78-1.08-1.02-1.78c-.24-.7-.37-1.47-.37-2.32s.12-1.62,.37-2.32c.24-.7,.58-1.29,1.02-1.79,.44-.49,.96-.88,1.56-1.15s1.26-.41,1.99-.41,1.38,.14,1.98,.41c.6,.27,1.12,.65,1.56,1.15,.44,.5,.78,1.09,1.02,1.79,.24,.7,.37,1.47,.37,2.32Zm-1.44,0c0-1.35-.31-2.43-.94-3.23s-1.48-1.2-2.55-1.2-1.92,.4-2.55,1.2-.94,1.88-.94,3.23,.31,2.42,.94,3.22c.63,.79,1.48,1.19,2.55,1.19s1.92-.4,2.55-1.19c.63-.79,.94-1.87,.94-3.22Z"/><path d="M73.56,18.74c.4-.11,.95-.24,1.63-.38,.68-.14,1.52-.21,2.51-.21,.82,0,1.51,.12,2.06,.36,.55,.24,.99,.57,1.32,1.01,.33,.44,.56,.96,.7,1.58,.14,.61,.21,1.29,.21,2.03v6.04h-1.36v-5.6c0-.77-.05-1.41-.16-1.94s-.28-.96-.52-1.29c-.24-.33-.56-.57-.96-.72-.4-.15-.89-.22-1.49-.22-.64,0-1.19,.04-1.66,.1-.47,.07-.77,.13-.91,.19v9.48h-1.36v-10.42Z"/><path d="M86.91,15.1c0,.32-.1,.57-.29,.76-.2,.19-.43,.28-.71,.28s-.52-.09-.71-.28c-.2-.19-.29-.44-.29-.76s.1-.58,.29-.76c.19-.19,.43-.28,.71-.28s.51,.09,.71,.28c.2,.19,.29,.44,.29,.76Zm-.31,14.06h-1.36v-10.8h1.36v10.8Z"/><path d="M94.48,29.39c-.84,0-1.57-.13-2.21-.4-.64-.26-1.17-.64-1.6-1.14s-.75-1.09-.97-1.78c-.22-.69-.33-1.45-.33-2.29s.12-1.62,.34-2.32c.23-.7,.56-1.29,.99-1.8s.95-.89,1.57-1.16c.61-.27,1.3-.41,2.07-.41,.58,0,1.13,.05,1.64,.15,.51,.1,.9,.22,1.18,.38l-.36,1.17c-.28-.14-.59-.25-.94-.33-.35-.08-.81-.12-1.4-.12-1.2,0-2.11,.39-2.73,1.16-.62,.77-.93,1.87-.93,3.29,0,.64,.07,1.23,.21,1.76,.14,.54,.37,1,.68,1.38,.31,.38,.72,.68,1.21,.9s1.1,.32,1.81,.32c.58,0,1.08-.07,1.47-.2,.4-.13,.69-.25,.87-.34l.29,1.17c-.25,.14-.64,.28-1.18,.41s-1.1,.2-1.68,.2Z"/><path d="M103.01,18.11c.71,0,1.31,.1,1.81,.3s.89,.48,1.2,.83c.31,.36,.53,.78,.67,1.26,.14,.49,.21,1.02,.21,1.59v6.81c-.14,.04-.34,.09-.61,.14-.26,.05-.57,.1-.92,.16-.35,.06-.73,.1-1.16,.14-.42,.03-.86,.05-1.31,.05-.57,0-1.1-.06-1.58-.19-.48-.13-.9-.32-1.25-.6-.35-.27-.63-.62-.83-1.04-.2-.42-.3-.94-.3-1.56s.11-1.09,.33-1.5,.54-.76,.94-1.03c.4-.27,.88-.47,1.44-.59,.56-.13,1.16-.19,1.82-.19,.2,0,.4,.01,.62,.03,.22,.02,.42,.05,.63,.08,.2,.03,.38,.07,.52,.1,.15,.03,.25,.07,.3,.09v-.67c0-.38-.03-.74-.08-1.1-.06-.35-.18-.67-.37-.96-.19-.29-.45-.52-.79-.69-.34-.17-.79-.26-1.35-.26-.79,0-1.39,.06-1.78,.17-.39,.11-.67,.2-.86,.27l-.19-1.19c.24-.11,.6-.22,1.1-.31,.49-.1,1.09-.15,1.79-.15Zm.12,10.07c.53,0,.99-.02,1.39-.05,.4-.03,.73-.08,1.01-.14v-3.8c-.15-.07-.4-.14-.73-.22-.33-.08-.79-.12-1.38-.12-.33,0-.68,.02-1.04,.07s-.7,.15-1,.31c-.31,.16-.56,.38-.75,.66-.2,.28-.29,.65-.29,1.11,0,.4,.07,.75,.2,1.02,.13,.28,.32,.5,.56,.67,.24,.17,.54,.29,.88,.37,.34,.08,.73,.12,1.16,.12Z"/><path d="M112.92,29.35c-.46-.01-.86-.07-1.2-.18-.34-.1-.63-.26-.86-.48-.23-.22-.4-.49-.52-.84-.12-.34-.18-.77-.18-1.28V13.2l1.36-.25v13.58c0,.33,.03,.6,.09,.8,.06,.2,.16,.36,.28,.48,.12,.12,.29,.21,.49,.26s.44,.1,.72,.15l-.19,1.13Z"/><path d="M128,27.93v1.23h-8.23V14.68h1.42v13.24h6.81Z"/><path d="M133.75,18.11c.71,0,1.31,.1,1.81,.3s.89,.48,1.2,.83c.31,.36,.53,.78,.67,1.26,.14,.49,.21,1.02,.21,1.59v6.81c-.14,.04-.34,.09-.61,.14-.26,.05-.57,.1-.92,.16-.35,.06-.73,.1-1.16,.14-.42,.03-.86,.05-1.31,.05-.57,0-1.1-.06-1.58-.19-.48-.13-.9-.32-1.25-.6-.35-.27-.63-.62-.83-1.04-.2-.42-.3-.94-.3-1.56s.11-1.09,.33-1.5,.54-.76,.94-1.03c.4-.27,.88-.47,1.44-.59,.56-.13,1.16-.19,1.82-.19,.2,0,.4,.01,.62,.03,.22,.02,.42,.05,.63,.08,.2,.03,.38,.07,.52,.1,.15,.03,.25,.07,.3,.09v-.67c0-.38-.03-.74-.08-1.1-.06-.35-.18-.67-.37-.96-.19-.29-.45-.52-.79-.69-.34-.17-.79-.26-1.35-.26-.79,0-1.39,.06-1.78,.17-.39,.11-.67,.2-.86,.27l-.19-1.19c.24-.11,.6-.22,1.1-.31,.49-.1,1.09-.15,1.79-.15Zm.12,10.07c.53,0,.99-.02,1.39-.05,.4-.03,.73-.08,1.01-.14v-3.8c-.15-.07-.4-.14-.73-.22-.33-.08-.79-.12-1.38-.12-.33,0-.68,.02-1.04,.07s-.7,.15-1,.31c-.31,.16-.56,.38-.75,.66-.2,.28-.29,.65-.29,1.11,0,.4,.07,.75,.2,1.02,.13,.28,.32,.5,.56,.67,.24,.17,.54,.29,.88,.37,.34,.08,.73,.12,1.16,.12Z"/><path d="M140.95,18.74c.4-.11,.95-.24,1.63-.38,.68-.14,1.52-.21,2.51-.21,.82,0,1.51,.12,2.06,.36,.55,.24,.99,.57,1.32,1.01,.33,.44,.56,.96,.7,1.58,.14,.61,.21,1.29,.21,2.03v6.04h-1.36v-5.6c0-.77-.05-1.41-.16-1.94s-.28-.96-.52-1.29c-.24-.33-.56-.57-.96-.72-.4-.15-.89-.22-1.49-.22-.64,0-1.19,.04-1.66,.1-.47,.07-.77,.13-.91,.19v9.48h-1.36v-10.42Z"/><path d="M161.3,28.83c-.4,.14-.92,.27-1.55,.4-.63,.13-1.42,.19-2.38,.19-.79,0-1.51-.13-2.16-.39s-1.21-.63-1.67-1.12c-.47-.49-.83-1.08-1.09-1.78-.26-.7-.39-1.48-.39-2.36,0-.82,.11-1.58,.32-2.27,.22-.69,.53-1.29,.95-1.79,.42-.5,.93-.89,1.54-1.17,.61-.28,1.3-.42,2.08-.42,.71,0,1.33,.1,1.85,.3,.52,.2,.9,.39,1.14,.57v-5.81l1.36-.25v15.88Zm-1.36-8.5c-.12-.1-.28-.2-.47-.31-.19-.11-.41-.22-.66-.31-.25-.1-.52-.18-.81-.24-.29-.06-.6-.09-.92-.09-.67,0-1.23,.12-1.68,.36-.45,.24-.82,.55-1.1,.95s-.48,.86-.61,1.4-.19,1.1-.19,1.7c0,1.42,.36,2.51,1.07,3.27,.71,.76,1.65,1.14,2.82,1.14,.67,0,1.21-.03,1.62-.09,.41-.06,.72-.13,.93-.2v-7.56Z"/><path d="M166.92,28.2c.78,0,1.42-.13,1.93-.39,.51-.26,.76-.69,.76-1.31,0-.29-.04-.54-.14-.75-.09-.21-.24-.4-.45-.56s-.48-.33-.83-.48c-.34-.15-.76-.33-1.26-.54-.4-.17-.79-.34-1.15-.51-.36-.17-.68-.38-.96-.61-.28-.23-.5-.5-.67-.82-.17-.32-.25-.71-.25-1.17,0-.88,.33-1.59,.99-2.13,.66-.54,1.57-.81,2.73-.81,.74,0,1.35,.06,1.83,.19,.48,.13,.82,.24,1.01,.33l-.31,1.21c-.17-.08-.45-.19-.85-.33s-.98-.21-1.74-.21c-.31,0-.6,.03-.87,.09-.27,.06-.51,.16-.72,.29-.21,.13-.38,.3-.5,.5s-.19,.45-.19,.74,.06,.54,.17,.75c.11,.21,.27,.39,.49,.56,.22,.16,.48,.31,.79,.45s.67,.29,1.08,.46c.42,.17,.82,.34,1.2,.51,.38,.17,.72,.38,1.01,.62,.29,.24,.53,.54,.71,.88s.27,.77,.27,1.28c0,.98-.37,1.71-1.1,2.21-.73,.5-1.73,.75-3,.75-.95,0-1.67-.08-2.17-.24-.5-.16-.83-.28-1-.37l.35-1.23s.13,.07,.27,.14c.14,.06,.33,.13,.56,.21,.24,.08,.52,.14,.85,.2,.33,.06,.71,.08,1.14,.08Z"/><path d="M178.11,29.39c-.84,0-1.57-.13-2.21-.4-.64-.26-1.17-.64-1.6-1.14s-.75-1.09-.97-1.78c-.22-.69-.33-1.45-.33-2.29s.12-1.62,.34-2.32c.23-.7,.56-1.29,.99-1.8s.95-.89,1.57-1.16c.61-.27,1.3-.41,2.07-.41,.58,0,1.13,.05,1.64,.15,.51,.1,.9,.22,1.18,.38l-.36,1.17c-.28-.14-.59-.25-.94-.33-.35-.08-.81-.12-1.4-.12-1.2,0-2.11,.39-2.73,1.16-.62,.77-.93,1.87-.93,3.29,0,.64,.07,1.23,.21,1.76,.14,.54,.37,1,.68,1.38,.31,.38,.72,.68,1.21,.9s1.1,.32,1.81,.32c.58,0,1.08-.07,1.47-.2,.4-.13,.69-.25,.87-.34l.29,1.17c-.25,.14-.64,.28-1.18,.41s-1.1,.2-1.68,.2Z"/><path d="M186.64,18.11c.71,0,1.31,.1,1.81,.3s.89,.48,1.2,.83c.31,.36,.53,.78,.67,1.26,.14,.49,.21,1.02,.21,1.59v6.81c-.14,.04-.34,.09-.61,.14-.26,.05-.57,.1-.92,.16-.35,.06-.73,.1-1.16,.14-.42,.03-.86,.05-1.31,.05-.57,0-1.1-.06-1.58-.19-.48-.13-.9-.32-1.25-.6-.35-.27-.63-.62-.83-1.04-.2-.42-.3-.94-.3-1.56s.11-1.09,.33-1.5,.54-.76,.94-1.03c.4-.27,.88-.47,1.44-.59,.56-.13,1.16-.19,1.82-.19,.2,0,.4,.01,.62,.03,.22,.02,.42,.05,.63,.08,.2,.03,.38,.07,.52,.1,.15,.03,.25,.07,.3,.09v-.67c0-.38-.03-.74-.08-1.1-.06-.35-.18-.67-.37-.96-.19-.29-.45-.52-.79-.69-.34-.17-.79-.26-1.35-.26-.79,0-1.39,.06-1.78,.17-.39,.11-.67,.2-.86,.27l-.19-1.19c.24-.11,.6-.22,1.1-.31,.49-.1,1.09-.15,1.79-.15Zm.12,10.07c.53,0,.99-.02,1.39-.05,.4-.03,.73-.08,1.01-.14v-3.8c-.15-.07-.4-.14-.73-.22-.33-.08-.79-.12-1.38-.12-.33,0-.68,.02-1.04,.07s-.7,.15-1,.31c-.31,.16-.56,.38-.75,.66-.2,.28-.29,.65-.29,1.11,0,.4,.07,.75,.2,1.02,.13,.28,.32,.5,.56,.67,.24,.17,.54,.29,.88,.37,.34,.08,.73,.12,1.16,.12Z"/><path d="M195.2,33.02h-1.36v-14.29c.4-.14,.92-.27,1.54-.4,.63-.12,1.42-.19,2.38-.19,.79,0,1.51,.13,2.16,.39s1.2,.63,1.67,1.12,.83,1.08,1.09,1.78,.39,1.48,.39,2.36c0,.82-.11,1.58-.32,2.27-.22,.69-.53,1.28-.95,1.78s-.93,.88-1.54,1.16-1.3,.42-2.08,.42c-.71,0-1.33-.1-1.85-.3-.52-.2-.9-.39-1.14-.58v4.49Zm0-5.81c.12,.1,.28,.2,.47,.31,.19,.11,.41,.22,.66,.31,.25,.1,.52,.18,.81,.24,.29,.06,.6,.09,.92,.09,.67,0,1.23-.12,1.68-.34,.45-.23,.82-.54,1.1-.94,.28-.4,.48-.86,.61-1.4,.12-.54,.19-1.1,.19-1.7,0-1.42-.36-2.51-1.07-3.27-.71-.76-1.65-1.14-2.82-1.14-.67,0-1.21,.03-1.62,.09-.41,.06-.72,.13-.93,.2v7.54Z"/><path d="M205.3,23.75c0-.95,.14-1.77,.41-2.48,.27-.7,.63-1.29,1.06-1.76,.44-.47,.94-.83,1.5-1.05,.56-.23,1.14-.34,1.74-.34,1.32,0,2.38,.43,3.16,1.29s1.18,2.19,1.18,3.99c0,.11,0,.22-.01,.33s-.02,.22-.03,.31h-7.58c.04,1.32,.37,2.34,.98,3.05,.61,.71,1.59,1.07,2.92,1.07,.74,0,1.32-.07,1.75-.21,.43-.14,.75-.26,.94-.35l.25,1.17c-.2,.11-.56,.24-1.1,.4s-1.17,.23-1.89,.23c-.95,0-1.75-.14-2.42-.42-.67-.28-1.22-.67-1.65-1.17-.43-.5-.75-1.1-.94-1.79-.2-.69-.29-1.44-.29-2.27Zm7.67-.86c-.03-1.13-.29-2-.79-2.63-.5-.63-1.21-.94-2.13-.94-.49,0-.92,.1-1.31,.29s-.72,.46-1,.78-.51,.71-.67,1.14-.25,.88-.28,1.36h6.18Z"/></g><rect class="cls-2" x="0" y="0" width="21" height="32"/><rect class="cls-1" x="2.5" y="14" width="16" height="16"/><path class="cls-3" d="M15.89,25.59h-6.31s-.04,0-.05,.02c-.01,.01-.02,.03-.02,.05v1.03s.04,.07,.08,.07h5.09v1.06h-6.21V14.9s-.03-.07-.07-.07h-3.31s-.07,.03-.07,.07v14.02s.03,.07,.07,.07h1.07s.04,0,.05-.02,.02-.03,.02-.05V15.94h1.08l-.04,12.91s0,.04,.02,.05c.01,.01,.03,.02,.05,.02H15.89s.07-.03,.07-.07v-3.19s-.03-.07-.07-.07Z"/></svg>